<?xml version="1.0" standalone="no"?>
<!DOCTYPE svg PUBLIC "-//W3C//DTD SVG 20010904//EN"
 "http://www.w3.org/TR/2001/REC-SVG-20010904/DTD/svg10.dtd">
<svg version="1.0" xmlns="http://www.w3.org/2000/svg"
 width="34.000000pt" height="30.000000pt" viewBox="0 0 34.000000 30.000000"
 preserveAspectRatio="xMidYMid meet">
<metadata>
Created by potrace 1.13, written by Peter Selinger 2001-2015
</metadata>
<g transform="translate(0.000000,30.000000) scale(0.100000,-0.100000)"
fill="#000000" stroke="none">
<path d="M0 149 l0 -151 83 7 c91 8 97 10 97 30 0 19 -62 63 -68 47 -2 -7 -8
-10 -13 -6 -5 3 -14 -7 -21 -23 -8 -20 -12 -23 -15 -12 -3 11 -12 15 -28 11
-22 -4 -25 -1 -25 23 0 16 9 35 23 46 19 16 19 18 5 19 -10 0 -18 6 -18 13 0
16 53 57 74 57 8 0 22 7 30 16 9 9 40 18 70 20 52 5 54 4 75 -30 12 -19 27
-36 34 -39 13 -4 19 -87 6 -87 -5 0 -6 -6 -3 -14 6 -16 -44 -19 -64 -3 -9 7
-11 6 -6 -7 5 -12 0 -16 -20 -16 -35 0 -34 -25 2 -37 15 -5 48 -11 75 -12 l47
-3 0 151 0 151 -170 0 -170 0 0 -151z"/>
</g>
</svg>
